<?xml version="1.0"?>
<svg xmlns="http://www.w3.org/2000/svg" height="512px" viewBox="0 0 496 496.04356" width="512px"><path d="m488.023438 32h-184v-24c0-4.417969-3.582032-8-8-8h-96c-4.421876 0-8 3.582031-8 8v24h-184c-4.421876 0-8.0000005 3.582031-8.0000005 8v296c0 4.417969 3.5781245 8 8.0000005 8h84.09375l-59.296876 124.558594c-1.90625 3.941406-.289062 8.683594 3.625 10.640625l32 16c1.921876.960937 4.148438 1.109375 6.179688.410156 2.035156-.703125 3.699219-2.1875 4.621094-4.128906l70.207031-147.480469h197.136719l70.230468 147.441406c.925782 1.9375 2.589844 3.425782 4.621094 4.125 2.03125.699219 4.257813.554688 6.179688-.40625l32-16c3.882812-1.964844 5.484375-6.675781 3.601562-10.601562l-59.296875-124.558594h84.097657c4.417968 0 8-3.582031 8-8v-296c0-4.417969-3.582032-8-8-8zm-280-16h80v16h-80zm-139.714844 461.199219-17.6875-8.847657 59.214844-124.351562h21.898437zm299.714844-149.199219h-56v-16h56zm77.398437 140.351562-17.6875 8.847657-63.425781-133.199219h21.898437zm34.601563-140.351562h-96v-24c0-4.417969-3.582032-8-8-8h-72c-4.421876 0-8 3.582031-8 8v24h-280v-280h464zm0 0" fill="#FFFFFF"/><path d="m80.023438 64h-40c-4.421876 0-8 3.582031-8 8v56c0 4.417969 3.578124 8 8 8 4.417968 0 8-3.582031 8-8v-48h32c4.417968 0 8-3.582031 8-8s-3.582032-8-8-8zm0 0" fill="#FFFFFF"/><path d="m40.023438 144c-4.421876 0-8 3.582031-8 8v16c0 4.417969 3.578124 8 8 8 4.417968 0 8-3.582031 8-8v-16c0-4.417969-3.582032-8-8-8zm0 0" fill="#FFFFFF"/><path d="m184.023438 208h-27.851563c11.390625-9.691406 21.382813-20.917969 29.683594-33.359375 5.78125-9.710937 5.921875-21.773437.367187-31.617187-5.351562-9.402344-15.382812-15.15625-26.199218-15.023438-17.675782 0-32 14.328125-32 32 0 4.417969 3.578124 8 8 8 4.417968 0 8-3.582031 8-8 0-8.835938 7.160156-16 16-16 5.078124-.171875 9.828124 2.511719 12.300781 6.953125 2.714843 4.84375 2.621093 10.773437-.238281 15.535156-8.277344 11.996094-18.148438 22.804688-29.34375 32.136719-4.34375 4-8.570313 7.910156-12.375 11.71875-2.289063 2.289062-2.972657 5.730469-1.734376 8.71875 1.238282 2.988281 4.152344 4.9375 7.390626 4.9375h48c4.417968 0 8-3.582031 8-8s-3.582032-8-8-8zm0 0" fill="#FFFFFF"/><path d="m312.023438 168c4.417968 0 8-3.582031 8-8 0-8.835938 7.160156-16 16-16 5.078124-.171875 9.828124 2.511719 12.300781 6.953125 2.714843 4.84375 2.621093 10.773437-.238281 15.535156-8.277344 11.996094-18.148438 22.804688-29.34375 32.136719-4.34375 4-8.570313 7.910156-12.375 11.71875-2.289063 2.289062-2.972657 5.730469-1.734376 8.71875 1.238282 2.988281 4.152344 4.9375 7.390626 4.9375h48c4.417968 0 8-3.582031 8-8s-3.582032-8-8-8h-27.851563c11.390625-9.691406 21.382813-20.917969 29.683594-33.359375 5.78125-9.710937 5.921875-21.773437.367187-31.617187-5.351562-9.402344-15.382812-15.15625-26.199218-15.023438-17.675782 0-32 14.328125-32 32 0 4.417969 3.578124 8 8 8zm0 0" fill="#FFFFFF"/><path d="m280.023438 168h-24v-24c0-4.417969-3.582032-8-8-8-4.421876 0-8 3.582031-8 8v24h-24c-4.421876 0-8 3.582031-8 8s3.578124 8 8 8h24v24c0 4.417969 3.578124 8 8 8 4.417968 0 8-3.582031 8-8v-24h24c4.417968 0 8-3.582031 8-8s-3.582032-8-8-8zm0 0" fill="#FFFFFF"/></svg>
