<?xml version="1.0"?>
<svg xmlns="http://www.w3.org/2000/svg" height="512px" viewBox="0 0 496 496.336" width="512px"><path d="m248.195312 0c-136.753906 0-248 100.488281-248 224-.859374 54.347656 19.121094 106.960938 55.839844 147.039062-3.648437 54.871094-53.296875 111.015626-53.800781 111.59375-2.035156 2.273438-2.597656 5.507813-1.449219 8.335938 1.144532 2.828125 3.796875 4.757812 6.839844 4.976562.914062.0625 5.800781.390626 13.472656.390626 31.25 0 108.488282-5.34375 149.921875-55.015626 22.054688 5.742188 44.871094 7.996094 67.621094 6.679688h9.554687c136.75 0 248-100.488281 248-224s-111.25-224-248-224zm0 432h-9.601562c-25.320312.144531-45.214844.207031-67.757812-7.585938-3.300782-1.140624-6.957032-.015624-9.042969 2.785157-34.300781 45.738281-105.207031 52.425781-137 53.007812 16.386719-21.535156 45.929687-66.464843 47.402343-111.949219.070313-2.175781-.742187-4.28125-2.257812-5.84375-35.347656-37.320312-54.644531-87.019531-53.742188-138.414062 0-114.6875 104.078126-208 232-208 127.917969 0 232 93.3125 232 208s-104.082031 208-232 208zm0 0" fill="#FFFFFF"/><path d="m154.417969 176.320312c-3.421875-.992187-7.085938.394532-8.992188 3.40625l-25.230469 39.914063-25.234374-39.914063c-1.898438-3.015624-5.566407-4.410156-8.988282-3.417968-3.425781.992187-5.78125 4.125-5.777344 7.691406v88c0 4.417969 3.582032 8 8 8 4.417969 0 8-3.582031 8-8v-60.375l17.230469 27.261719c1.566407 2.183593 4.085938 3.476562 6.769531 3.476562 2.683594 0 5.203126-1.292969 6.765626-3.476562l17.234374-27.261719v60.375c0 4.417969 3.582032 8 8 8 4.417969 0 8-3.582031 8-8v-88c-.003906-3.558594-2.355468-6.691406-5.777343-7.679688zm0 0" fill="#FFFFFF"/><path d="m223.472656 180.6875c-1.296875-2.851562-4.144531-4.683594-7.277344-4.683594-3.136718 0-5.980468 1.832032-7.28125 4.683594l-40 88c-1.261718 2.613281-1.007812 5.703125.660157 8.078125 1.667969 2.371094 4.492187 3.65625 7.378906 3.355469 2.882813-.300782 5.378906-2.140625 6.519531-4.808594l12.417969-27.3125h40.609375l12.414062 27.3125c1.140626 2.667969 3.636719 4.507812 6.523438 4.808594 2.886719.300781 5.707031-.984375 7.375-3.355469 1.667969-2.375 1.921875-5.464844.660156-8.078125zm-20.308594 51.3125 13.03125-28.664062 13.03125 28.664062zm0 0" fill="#FFFFFF"/><path d="m328.195312 176h-64c-4.417968 0-8 3.582031-8 8s3.582032 8 8 8h24v80c0 4.417969 3.582032 8 8 8 4.417969 0 8-3.582031 8-8v-80h24c4.417969 0 8-3.582031 8-8s-3.582031-8-8-8zm0 0" fill="#FFFFFF"/><path d="m408.195312 176c-4.417968 0-8 3.582031-8 8v32h-40v-32c0-4.417969-3.582031-8-8-8-4.417968 0-8 3.582031-8 8v88c0 4.417969 3.582032 8 8 8 4.417969 0 8-3.582031 8-8v-40h40v40c0 4.417969 3.582032 8 8 8 4.417969 0 8-3.582031 8-8v-88c0-4.417969-3.582031-8-8-8zm0 0" fill="#FFFFFF"/></svg>
